<svg xmlns="http://www.w3.org/2000/svg" width="360" height="392" viewBox="0 0 360 392">
    <g fill="#7C8CC0" fill-rule="evenodd" opacity=".4">
        <path d="M128.5 131h2.5v5h-2.5v-5zm0 12h2.5v5h-2.5v-5zm-7.5-4.5h5v2.5h-5v-2.5zm12 0h5v2.5h-5v-2.5zm-4.5 0h2.5v2.5h-2.5v-2.5zM128.5 331h2.5v5h-2.5v-5zm0 12h2.5v5h-2.5v-5zm-7.5-4.5h5v2.5h-5v-2.5zm12 0h5v2.5h-5v-2.5zm-4.5 0h2.5v2.5h-2.5v-2.5zM302.5 25h2.5v5h-2.5v-5zm0 12h2.5v5h-2.5v-5zm-7.5-4.5h5V35h-5v-2.5zm12 0h5V35h-5v-2.5zm-4.5 0h2.5V35h-2.5v-2.5zM302.5 187h2.5v5h-2.5v-5zm0 12h2.5v5h-2.5v-5zm-7.5-4.5h5v2.5h-5v-2.5zm12 0h5v2.5h-5v-2.5zm-4.5 0h2.5v2.5h-2.5v-2.5zM190.5 142h2.5v2.5h-2.5V142zm0 14.5h2.5v2.5h-2.5v-2.5zm-7.5-7h2.5v2.5H183v-2.5zm14.5 0h2.5v2.5h-2.5v-2.5zM190.5 343h2.5v2.5h-2.5V343zm0 14.5h2.5v2.5h-2.5v-2.5zm-7.5-7h2.5v2.5H183v-2.5zm14.5 0h2.5v2.5h-2.5v-2.5zM105.5 74h2.5v2.5h-2.5V74zm0 14.5h2.5V91h-2.5v-2.5zm-7.5-7h2.5V84H98v-2.5zm14.5 0h2.5V84h-2.5v-2.5zM105.5 256h2.5v2.5h-2.5V256zm0 14.5h2.5v2.5h-2.5v-2.5zm-7.5-7h2.5v2.5H98v-2.5zm14.5 0h2.5v2.5h-2.5v-2.5zM137.5 28H135v-2.5h2.5v2h2v-2h-2V23h2.5v2.5h2V28h-2v2h-2.5v-2zM137.5 210H135v-2.5h2.5v2h2v-2h-2V205h2.5v2.5h2v2.5h-2v2h-2.5v-2zM262.5 148H260v-2.5h2.5v2h2v-2h-2V143h2.5v2.5h2v2.5h-2v2h-2.5v-2zM262.5 348H260v-2.5h2.5v2h2v-2h-2V343h2.5v2.5h2v2.5h-2v2h-2.5v-2zM340.5 17H338v-2.5h2.5v2h2v-2h-2V12h2.5v2.5h2V17h-2v2h-2.5v-2zM21.5 17H19v-2.5h2.5v2h2v-2h-2V12H24v2.5h2V17h-2v2h-2.5v-2zM340.5 190H338v-2.5h2.5v2h2v-2h-2V185h2.5v2.5h2v2.5h-2v2h-2.5v-2zM340.5 390H338v-2.5h2.5v2h2v-2h-2V385h2.5v2.5h2v2.5h-2v2h-2.5v-2zM14.5 101.5v4.5H12v-4.5H7V99h5v2h2v-2h-2v-5h2.5v5H19v2.5h-4.5zM14.5 283.5v4.5H12v-4.5H7V281h5v2h2v-2h-2v-5h2.5v5H19v2.5h-4.5zM52.5 52.5V57H50v-4.5h-5V50h5v2h2v-2h-2v-5h2.5v5H57v2.5h-4.5zM52.5 234.5v4.5H50v-4.5h-5V232h5v2h2v-2h-2v-5h2.5v5H57v2.5h-4.5zM189.5 75.5V80H187v-4.5h-5V73h5v2h2v-2h-2v-5h2.5v5h4.5v2.5h-4.5zM189.5 257.5v4.5H187v-4.5h-5V255h5v2h2v-2h-2v-5h2.5v5h4.5v2.5h-4.5zM237.5 23.5V28H235v-4.5h-5V21h5v2h2v-2h-2v-5h2.5v5h4.5v2.5h-4.5zM237.5 205.5v4.5H235v-4.5h-5V203h5v2h2v-2h-2v-5h2.5v5h4.5v2.5h-4.5zM30.5 167H33v2.5h-2.5V167zm4.5 2.5h2.5v2.5H35v-2.5zm2.5 5H40v2.5h-2.5v-2.5zM35 179h2.5v2.5H35V179zm-4.5 2.5H33v2.5h-2.5v-2.5zm-5-2.5H28v2.5h-2.5V179zm-2.5-4.5h2.5v2.5H23v-2.5zm2.5-5H28v2.5h-2.5v-2.5zM30.5 367H33v2.5h-2.5V367zm4.5 2.5h2.5v2.5H35v-2.5zm2.5 5H40v2.5h-2.5v-2.5zM35 379h2.5v2.5H35V379zm-4.5 2.5H33v2.5h-2.5v-2.5zm-5-2.5H28v2.5h-2.5V379zm-2.5-4.5h2.5v2.5H23v-2.5zm2.5-5H28v2.5h-2.5v-2.5zM300.5 89h2.5v2.5h-2.5V89zm4.5 2.5h2.5V94H305v-2.5zm2.5 5h2.5V99h-2.5v-2.5zM305 101h2.5v2.5H305V101zm-4.5 2.5h2.5v2.5h-2.5v-2.5zm-5-2.5h2.5v2.5h-2.5V101zm-2.5-4.5h2.5V99H293v-2.5zm2.5-5h2.5V94h-2.5v-2.5zM300.5 271h2.5v2.5h-2.5V271zm4.5 2.5h2.5v2.5H305v-2.5zm2.5 5h2.5v2.5h-2.5v-2.5zM305 283h2.5v2.5H305V283zm-4.5 2.5h2.5v2.5h-2.5v-2.5zm-5-2.5h2.5v2.5h-2.5V283zm-2.5-4.5h2.5v2.5H293v-2.5zm2.5-5h2.5v2.5h-2.5v-2.5zM141.5 136H139v-2.5h2.5v2h2v-2h-2V131h2.5v2.5h2v2.5h-2v2h-2.5v-2zM141.5 318H139v-2.5h2.5v2h2v-2h-2V313h2.5v2.5h2v2.5h-2v2h-2.5v-2zM219.5 137H217v-2.5h2.5v2h2v-2h-2V132h2.5v2.5h2v2.5h-2v2h-2.5v-2zM219.5 319H217v-2.5h2.5v2h2v-2h-2V314h2.5v2.5h2v2.5h-2v2h-2.5v-2z"/>
    </g>
</svg>
